<svg width="835" height="835" viewBox="0 0 835 835" fill="none" xmlns="http://www.w3.org/2000/svg">
<mask id="mask0_2002_44" style="mask-type:luminance" maskUnits="userSpaceOnUse" x="0" y="0" width="835" height="835">
<path d="M835 0H0V835H835V0Z" fill="white" style="fill:white;fill-opacity:1;"/>
<path d="M800.208 417.465C800.208 470.001 772.918 518.632 729.811 546.814C740.388 597.227 725.347 650.997 688.19 688.12C651.067 725.277 597.258 740.248 546.883 729.741C518.698 772.883 470.07 800.208 417.535 800.208C364.999 800.208 316.368 772.883 288.186 729.776C237.773 740.422 184.002 725.312 146.879 688.155C109.757 651.032 94.6817 597.296 105.258 546.848C62.1167 518.667 34.7917 470.035 34.7917 417.5C34.7917 364.965 62.1167 316.334 105.258 288.153C94.7165 237.705 109.757 183.968 146.879 146.845C184.002 109.688 237.704 94.578 288.186 105.224C316.368 62.1174 364.965 34.7917 417.5 34.7917C470.035 34.7917 518.667 62.1174 546.848 105.224C597.192 94.578 650.997 109.688 688.155 146.845C725.277 183.968 740.353 237.705 729.776 288.153C772.907 316.328 800.198 364.978 800.208 417.465ZM453.481 198.387C440.549 165.817 394.454 165.816 381.518 198.387L330.351 327.259C329.787 328.667 328.668 329.79 327.259 330.351L198.387 381.518C165.818 394.454 165.818 440.546 198.387 453.482L327.259 504.65C328.668 505.21 329.787 506.334 330.351 507.743L381.518 636.614C394.454 669.183 440.549 669.183 453.481 636.614L504.615 507.743C505.178 506.33 506.327 505.21 507.743 504.65L636.614 453.482C669.183 440.546 669.183 394.454 636.614 381.518L507.743 330.351C506.327 329.791 505.178 328.672 504.615 327.259L453.481 198.387Z" fill="black" style="fill:black;fill-opacity:1;"/>
</mask>
<g mask="url(#mask0_2002_44)">
<path d="M349.173 185.545C373.732 123.699 461.278 123.726 485.827 185.579L532.271 302.627L649.456 349.176C711.295 373.732 711.295 461.271 649.456 485.827L532.271 532.34L485.827 649.456C461.271 711.295 373.732 711.298 349.173 649.456L302.66 532.306L185.544 485.827C123.705 461.268 123.705 373.732 185.544 349.176L302.66 302.661L349.173 185.545Z" fill="url(#paint0_linear_2002_44)" style=""/>
</g>
<mask id="mask1_2002_44" style="mask-type:luminance" maskUnits="userSpaceOnUse" x="34" y="34" width="767" height="767">
<path d="M800.208 417.465C800.208 470.001 772.918 518.632 729.811 546.814C740.388 597.227 725.347 650.997 688.19 688.12C651.067 725.277 597.258 740.248 546.883 729.741C518.698 772.883 470.07 800.208 417.535 800.208C364.999 800.208 316.368 772.883 288.186 729.776C237.773 740.422 184.002 725.312 146.879 688.155C109.757 651.032 94.6817 597.296 105.258 546.848C62.1167 518.667 34.7917 470.035 34.7917 417.5C34.7917 364.965 62.1167 316.334 105.258 288.153C94.7165 237.705 109.757 183.968 146.879 146.845C184.002 109.688 237.704 94.578 288.186 105.224C316.368 62.1174 364.965 34.7917 417.5 34.7917C470.035 34.7917 518.667 62.1174 546.848 105.224C597.192 94.578 650.997 109.688 688.155 146.845C725.277 183.968 740.353 237.705 729.776 288.153C772.907 316.328 800.198 364.978 800.208 417.465ZM453.481 198.387C440.549 165.817 394.454 165.816 381.518 198.387L330.351 327.259C329.787 328.667 328.668 329.79 327.259 330.351L198.387 381.518C165.818 394.454 165.818 440.546 198.387 453.482L327.259 504.65C328.668 505.21 329.787 506.334 330.351 507.743L381.518 636.614C394.454 669.183 440.549 669.183 453.481 636.614L504.615 507.743C505.178 506.33 506.327 505.21 507.743 504.65L636.614 453.482C669.183 440.546 669.183 394.454 636.614 381.518L507.743 330.351C506.327 329.791 505.178 328.672 504.615 327.259L453.481 198.387Z" fill="white" style="fill:white;fill-opacity:1;"/>
</mask>
<g mask="url(#mask1_2002_44)">
<g filter="url(#filter0_f_2002_44)">
<path d="M349.173 185.545C373.732 123.699 461.278 123.726 485.827 185.579L532.271 302.627L649.456 349.176C711.295 373.732 711.295 461.271 649.456 485.827L532.271 532.34L485.827 649.456C461.271 711.295 373.732 711.298 349.173 649.456L302.66 532.306L185.544 485.827C123.705 461.268 123.705 373.732 185.544 349.176L302.66 302.661L349.173 185.545Z" fill="url(#paint1_linear_2002_44)" style=""/>
</g>
</g>
<path d="M800.208 417.465C800.208 470.001 772.918 518.632 729.811 546.814C740.388 597.227 725.347 650.997 688.19 688.12C651.067 725.277 597.258 740.248 546.883 729.741C518.698 772.883 470.07 800.208 417.535 800.208C364.999 800.208 316.368 772.883 288.186 729.776C237.773 740.422 184.002 725.312 146.879 688.155C109.757 651.032 94.6817 597.296 105.258 546.848C62.1167 518.667 34.7917 470.035 34.7917 417.5C34.7917 364.965 62.1167 316.334 105.258 288.153C94.7165 237.705 109.757 183.968 146.879 146.845C184.002 109.688 237.704 94.578 288.186 105.224C316.368 62.1174 364.965 34.7917 417.5 34.7917C470.035 34.7917 518.667 62.1174 546.848 105.224C597.192 94.578 650.997 109.688 688.155 146.845C725.277 183.968 740.353 237.705 729.776 288.153C772.907 316.328 800.198 364.978 800.208 417.465ZM453.481 198.387C440.549 165.817 394.454 165.816 381.518 198.387L330.351 327.259C329.787 328.667 328.668 329.79 327.259 330.351L198.387 381.518C165.818 394.454 165.818 440.546 198.387 453.482L327.259 504.65C328.668 505.21 329.787 506.334 330.351 507.743L381.518 636.614C394.454 669.183 440.549 669.183 453.481 636.614L504.615 507.743C505.178 506.33 506.327 505.21 507.743 504.65L636.614 453.482C669.183 440.546 669.183 394.454 636.614 381.518L507.743 330.351C506.327 329.791 505.178 328.672 504.615 327.259L453.481 198.387Z" fill="url(#paint2_linear_2002_44)" style=""/>
<path d="M800.208 417.465C800.208 470.001 772.918 518.632 729.811 546.814C740.388 597.227 725.347 650.997 688.19 688.12C651.067 725.277 597.258 740.248 546.883 729.741C518.698 772.883 470.07 800.208 417.535 800.208V774.115C461.014 774.115 501.536 751.444 525.034 715.473L534.786 700.589L552.217 704.225C594.269 712.996 639.05 700.356 669.74 669.639C700.471 638.932 713.111 594.217 704.295 552.182L700.624 534.717L715.539 524.968C751.472 501.477 774.135 460.969 774.149 417.5C774.149 374.052 751.476 333.495 715.504 309.999L700.589 300.248L704.26 282.784C713.076 240.72 700.426 196.013 669.705 165.295C638.935 134.524 594.162 121.877 552.248 130.74L534.786 134.444L524.999 119.494C501.504 83.5536 460.983 60.8854 417.5 60.8854C374.024 60.8854 333.534 83.5477 310.033 119.494L300.248 134.41L282.784 130.74C240.725 121.875 196.088 134.546 165.362 165.295C134.651 196.005 121.979 240.728 130.775 282.818L134.444 300.248L119.528 309.999C83.557 333.497 60.8854 374.021 60.8854 417.5C60.8854 460.979 83.557 501.504 119.528 524.999L134.444 534.751L130.775 552.217C121.958 594.28 134.644 638.987 165.362 669.705C196.089 700.457 240.796 713.125 282.784 704.26L300.248 700.555L310.033 715.504C333.531 751.448 374.052 774.115 417.535 774.115V800.208C364.999 800.208 316.368 772.883 288.186 729.776C237.773 740.422 184.002 725.312 146.879 688.155C109.757 651.032 94.6817 597.296 105.258 546.848C62.1167 518.667 34.7917 470.035 34.7917 417.5C34.7917 364.965 62.1167 316.334 105.258 288.153C94.7165 237.705 109.757 183.968 146.879 146.845C181.68 112.012 231.045 96.5545 278.673 103.526L288.186 105.224C316.368 62.1174 364.965 34.7917 417.5 34.7917C466.751 34.7917 512.586 58.7892 541.344 97.3081L546.848 105.224C597.192 94.578 650.997 109.688 688.155 146.845C725.277 183.968 740.353 237.705 729.776 288.153C772.907 316.328 800.198 364.978 800.208 417.465Z" fill="url(#paint3_linear_2002_44)" style=""/>
<defs>
<filter id="filter0_f_2002_44" x="135.165" y="135.175" width="564.67" height="564.661" filterUnits="userSpaceOnUse" color-interpolation-filters="sRGB">
<feFlood flood-opacity="0" result="BackgroundImageFix"/>
<feBlend mode="normal" in="SourceGraphic" in2="BackgroundImageFix" result="shape"/>
<feGaussianBlur stdDeviation="2" result="effect1_foregroundBlur_2002_44"/>
</filter>
<linearGradient id="paint0_linear_2002_44" x1="417.5" y1="139.167" x2="417.5" y2="695.833" gradientUnits="userSpaceOnUse">
<stop stop-color="#575757" style="stop-color:#575757;stop-color:color(display-p3 0.3412 0.3412 0.3412);stop-opacity:1;"/>
<stop offset="1" stop-color="#151515" style="stop-color:#151515;stop-color:color(display-p3 0.0824 0.0824 0.0824);stop-opacity:1;"/>
</linearGradient>
<linearGradient id="paint1_linear_2002_44" x1="417.5" y1="139.167" x2="417.5" y2="695.833" gradientUnits="userSpaceOnUse">
<stop stop-color="#575757" style="stop-color:#575757;stop-color:color(display-p3 0.3412 0.3412 0.3412);stop-opacity:1;"/>
<stop offset="1" stop-color="#151515" style="stop-color:#151515;stop-color:color(display-p3 0.0824 0.0824 0.0824);stop-opacity:1;"/>
</linearGradient>
<linearGradient id="paint2_linear_2002_44" x1="417.5" y1="34.7917" x2="417.5" y2="800.208" gradientUnits="userSpaceOnUse">
<stop stop-color="#E3E3E5" stop-opacity="0.6" style="stop-color:#E3E3E5;stop-color:color(display-p3 0.8902 0.8902 0.8980);stop-opacity:0.6;"/>
<stop offset="1" stop-color="#BBBBC0" stop-opacity="0.6" style="stop-color:#BBBBC0;stop-color:color(display-p3 0.7333 0.7333 0.7529);stop-opacity:0.6;"/>
</linearGradient>
<linearGradient id="paint3_linear_2002_44" x1="417.5" y1="34.7917" x2="417.5" y2="478.038" gradientUnits="userSpaceOnUse">
<stop stop-color="white" style="stop-color:white;stop-opacity:1;"/>
<stop offset="1" stop-color="white" stop-opacity="0" style="stop-color:none;stop-opacity:0;"/>
</linearGradient>
</defs>
</svg>
